<svg width="128" height="128" viewBox="0 0 128 128" fill="none" xmlns="http://www.w3.org/2000/svg">
  <rect width="128" height="128" rx="28" fill="#F4C430"/>
  <path d="M66 22C88.6437 22 107 40.3563 107 63C107 85.6437 88.6437 104 66 104H35C26.7157 104 20 97.2843 20 89V63C20 40.3563 38.3563 22 61 22H66Z" fill="#1D6F3B"/>
  <path d="M68.3834 42.6291C78.596 42.6291 86.875 50.9081 86.875 61.1207C86.875 71.3333 78.596 79.6123 68.3834 79.6123H54.0101C46.6184 79.6123 40.625 73.6189 40.625 66.2272V61.1207C40.625 50.9081 48.904 42.6291 59.1166 42.6291H68.3834Z" fill="#FFFDF3"/>
</svg>

