<svg width="512" height="512" viewBox="0 0 512 512" fill="none" xmlns="http://www.w3.org/2000/svg">
  <rect width="512" height="512" rx="120" fill="#F4C430"/>
  <path d="M278 88C368.022 88 441 160.978 441 251C441 341.022 368.022 414 278 414H154C121.968 414 96 388.032 96 356V251C96 160.978 168.978 88 259 88H278Z" fill="#1D6F3B"/>
  <path d="M287.293 170.089C327.886 170.089 360.794 202.997 360.794 243.59C360.794 284.183 327.886 317.091 287.293 317.091H230.148C200.761 317.091 176.938 293.268 176.938 263.881V243.59C176.938 202.997 209.846 170.089 250.439 170.089H287.293Z" fill="#FFFDF3"/>
</svg>

